
<svg width="106px" height="30px" viewBox="0 0 106 30" version="1.1" xmlns="http://www.w3.org/2000/svg" xmlns:xlink="http://www.w3.org/1999/xlink">
    <defs>
        <polygon id="path-1" points="0 29.0873341 105.510546 29.0873341 105.510546 0.285317334 0 0.285317334"></polygon>
        <polygon id="path-3" points="0.0328866531 0.285644158 5.53236752 0.285644158 5.53236752 5.78408385 0.0328866531 5.78408385"></polygon>
        <polygon id="path-5" points="0 29.0873341 105.510546 29.0873341 105.510546 0.285317334 0 0.285317334"></polygon>
    </defs>
    <g id="Page-1" stroke="none" stroke-width="1" fill="none" fill-rule="evenodd">
        <g id="clements-hp-Mobile-jk1.2" transform="translate(-13.000000, -9.000000)">
            <g id="header-copy-2" transform="translate(-246.000000, -66.000000)">
                <g id="logo" transform="translate(168.000000, 0.000000)">
                    <g id="logo-1-copy" transform="translate(91.000000, 75.000000)">
                        <g id="Group-16" transform="translate(0.000000, 0.041507)">
                            <path d="M62.4485128,24.2470383 L60.9382592,29.0382779 L60.1176042,29.0382779 L59.109679,25.5876703 L58.9825445,25.1559358 C58.9769885,25.1330581 58.9563986,25.0611569 58.9237162,24.9415393 L58.8606391,24.7235477 L58.8501808,24.7235477 L58.790372,24.9415393 L58.7269681,25.1595309 L58.5975458,25.5942068 L57.5726258,29.0382779 L56.7640633,29.0382779 L55.2933554,24.2470383 L55.8476489,24.2470383 L56.8807395,27.6904558 L57.0206201,28.1568336 C57.0330394,28.195072 57.0555903,28.2725293 57.0908873,28.3892054 L57.1578862,28.6248455 L57.1680178,28.6248455 L57.234363,28.3892054 L57.3013619,28.1568336 L57.438628,27.693724 L58.4566847,24.2470383 L59.2567498,24.2470383 L60.2685968,27.6979727 L60.4052093,28.1568336 L60.4679595,28.3931273 L60.5349584,28.6248455 L60.5463972,28.6248455 L60.6156839,28.3892054 L60.6859511,28.1548727 L60.8297536,27.6839193 L61.8834341,24.2470383 L62.4485128,24.2470383 Z" id="Fill-1" fill="#5B5858"></path>
                            <path d="M65.8179046,24.65364 C65.0590193,24.65364 64.6155192,24.7382875 64.4867505,24.906275 C64.3583087,25.075243 64.2939244,25.6533946 64.2939244,26.6407298 C64.2939244,27.6316601 64.3583087,28.2098118 64.4867505,28.3791066 C64.6155192,28.5464405 65.0590193,28.6314147 65.8179046,28.6314147 C66.5777703,28.6314147 67.0229046,28.5464405 67.1513464,28.3791066 C67.2797883,28.2098118 67.3441726,27.6316601 67.3441726,26.6407298 L67.3441726,26.3279593 L67.3402507,25.8753081 C67.3402507,25.3465069 67.252335,25.0108587 67.0745428,24.8683634 C66.8964237,24.7258681 66.4771086,24.65364 65.8179046,24.65364 M65.8211728,24.1977206 C66.7268021,24.1977206 67.2925344,24.3297575 67.5200039,24.5938313 C67.7471465,24.857905 67.8608813,25.5197236 67.8608813,26.5776528 C67.8608813,27.7169612 67.7513953,28.4206132 67.534711,28.6879552 C67.3167194,28.9543168 66.7457579,29.0873341 65.8211728,29.0873341 C64.9014902,29.0873341 64.3302018,28.9559509 64.1095957,28.6918771 C63.8883358,28.4271497 63.7781961,27.7434339 63.7781961,26.6407298 L63.7781961,26.3041011 L63.7844058,25.8511231 C63.7844058,25.2147968 63.9282083,24.7801209 64.214833,24.5470954 C64.5017844,24.3143968 65.0371221,24.1977206 65.8211728,24.1977206" id="Fill-3" fill="#5B5858"></path>
                            <path d="M70.1694025,26.6407625 L71.7322747,26.6407625 C72.1437461,26.6407625 72.4244879,26.5789928 72.5741733,26.4528387 C72.7248392,26.327992 72.7990282,26.0923519 72.7990282,25.7455916 C72.7990282,25.3115694 72.7431413,25.0305008 72.632348,24.8994444 C72.5218815,24.7683879 72.2836268,24.7030231 71.9175839,24.7030231 L70.1694025,24.7030231 L70.1694025,26.6407625 Z M69.6285088,29.0380164 L69.6285088,24.2471037 L71.9110475,24.2471037 C72.4257952,24.2471037 72.7879162,24.3484191 72.9993713,24.5517036 C73.2098459,24.7559686 73.3154101,25.1089385 73.3154101,25.6119206 C73.3154101,26.0541135 73.2575622,26.363289 73.142847,26.5374861 C73.0284586,26.7113565 72.8098134,26.8244376 72.4865845,26.8767294 L72.4865845,26.8865342 C72.9944689,26.9241189 73.2490648,27.2326407 73.2490648,27.8137338 L73.2490648,29.0380164 L72.7078443,29.0380164 L72.7078443,27.9366196 C72.7078443,27.3770969 72.4653409,27.096682 71.9809878,27.096682 L71.8018882,27.096682 L70.1694025,27.096682 L70.1694025,29.0380164 L69.6285088,29.0380164 Z" id="Fill-5" fill="#5B5858"></path>
                            <polygon id="Fill-7" fill="#5B5858" points="75.7988148 24.2470383 75.7988148 28.5366031 78.2647017 28.5366031 78.2647017 29.0382779 75.2585747 29.0382779 75.2585747 24.2470383"></polygon>
                            <path d="M80.4361202,28.5820643 L81.9986657,28.5820643 C82.5722417,28.5820643 82.9415528,28.4673491 83.1082331,28.2382454 C83.2742597,28.008815 83.3572729,27.4976623 83.3572729,26.7038069 C83.3572729,25.8341283 83.2850448,25.2817957 83.1409155,25.051058 C82.9974397,24.8183593 82.6529673,24.7029905 82.1068444,24.7029905 L80.4361202,24.7029905 L80.4361202,28.5820643 Z M79.8958802,29.0383105 L79.8958802,24.247071 L82.1143614,24.247071 C82.8006917,24.247071 83.2641281,24.3980637 83.507612,24.6993954 C83.7514227,25.0013808 83.8730012,25.5792056 83.8730012,26.4338503 C83.8730012,27.4728237 83.7648224,28.1673246 83.5478113,28.5150654 C83.3324343,28.8644402 82.8993926,29.0383105 82.2513006,29.0383105 L79.8958802,29.0383105 Z" id="Fill-9" fill="#5B5858"></path>
                            <path d="M92.4523267,24.2470383 L90.9423999,29.0382779 L90.1204376,29.0382779 L89.1131661,25.5876703 L88.9876657,25.1559358 C88.979822,25.1330581 88.9605393,25.0611569 88.9268765,24.9415393 L88.8634726,24.7235477 L88.8533411,24.7235477 L88.7941859,24.9415393 L88.7311089,25.1595309 L88.6007061,25.5942068 L87.5754593,29.0382779 L86.7685309,29.0382779 L85.2974962,24.2470383 L85.8524433,24.2470383 L86.8845534,27.6904558 L87.0244341,28.1568336 C87.0358729,28.195072 87.0600579,28.2725293 87.0943744,28.3892054 L87.1617002,28.6248455 L87.1721585,28.6248455 L87.2388306,28.3892054 L87.3055027,28.1568336 L87.4417883,27.693724 L88.4604987,24.2470383 L89.2608906,24.2470383 L90.2717571,27.6979727 L90.40935,28.1568336 L90.4721002,28.3931273 L90.5390992,28.6248455 L90.5492307,28.6248455 L90.6194979,28.3892054 L90.6904187,28.1548727 L90.8329139,27.6839193 L91.8865944,24.2470383 L92.4523267,24.2470383 Z" id="Fill-11" fill="#5B5858"></path>
                            <mask id="mask-2" fill="white">
                                <use xlink:href="#path-1"></use>
                            </mask>
                            <g id="Clip-14"></g>
                            <polygon id="Fill-13" fill="#5B5858" mask="url(#mask-2)" points="94.0723605 29.0383105 94.6132542 29.0383105 94.6132542 24.247071 94.0723605 24.247071"></polygon>
                            <path d="M97.2278134,28.5820643 L98.7903588,28.5820643 C99.3629544,28.5820643 99.7335728,28.4673491 99.8992726,28.2382454 C100.065299,28.008815 100.148312,27.4976623 100.148312,26.7038069 C100.148312,25.8341283 100.076411,25.2817957 99.9326086,25.051058 C99.7884792,24.8183593 99.445314,24.7029905 98.8991912,24.7029905 L97.2278134,24.7029905 L97.2278134,28.5820643 Z M96.6869197,29.0383105 L96.6869197,24.247071 L98.9054008,24.247071 C99.5917312,24.247071 100.056148,24.3980637 100.299632,24.6993954 C100.542789,25.0013808 100.665021,25.5792056 100.665021,26.4338503 C100.665021,27.4728237 100.556842,28.1673246 100.340158,28.5150654 C100.123147,28.8644402 99.6907589,29.0383105 99.0429937,29.0383105 L96.6869197,29.0383105 Z" id="Fill-15" fill="#5B5858" mask="url(#mask-2)"></path>
                        </g>
                        <polygon id="Fill-17" fill="#5B5858" points="102.341563 24.2884469 102.341563 29.0796865 105.420898 29.0796865 105.420898 28.6234402 102.882456 28.6234402 102.882456 26.8337521 105.315334 26.8337521 105.315334 26.3775058 102.882456 26.3775058 102.882456 24.7443664 105.420898 24.7443664 105.420898 24.2884469"></polygon>
                        <g id="Group-23" transform="translate(0.000000, 0.041507)">
                            <g id="Group-20" transform="translate(4.575536, 0.000000)">
                                <mask id="mask-4" fill="white">
                                    <use xlink:href="#path-3"></use>
                                </mask>
                                <g id="Clip-19"></g>
                                <path d="M5.18234979,1.69569353 C5.92358658,3.02259889 5.44903816,4.69528401 4.12245963,5.43390621 C2.79751521,6.17645029 1.12188867,5.69863363 0.381959184,4.37368922 C-0.358297128,3.04776434 0.117558585,1.37638651 1.44282982,0.633515601 C2.770062,-0.105106592 4.44438125,0.370095474 5.18234979,1.69569353" id="Fill-18" fill="#8AC640" mask="url(#mask-4)"></path>
                            </g>
                            <path d="M11.5341738,25.3036276 C7.58973522,22.5452332 2.62364486,14.3141713 12.7189107,6.74231333 C12.9395169,6.57661357 13.1078313,6.2295265 12.6260927,6.4449035 C3.62307259,10.4903307 2.29355264,6.45928376 2.22851467,4.00581615 C2.20465652,3.10312832 1.87423747,3.50414134 1.66866519,4.03098159 C-3.95009266,18.3847639 5.9961415,24.1613778 11.2008134,25.7056211 C11.9495671,25.9278614 12.0894478,25.6915676 11.5341738,25.3036276" id="Fill-21" fill="#8AC640"></path>
                        </g>
                        <g id="Group-34" transform="translate(0.000000, 0.041507)">
                            <path d="M21.6735283,17.494953 L23.1739772,17.494953 L23.1847624,18.0521879 C23.1847624,20.2458304 21.7480441,21.3423249 18.8765687,21.3423249 C17.0336082,21.3423249 15.8152084,20.9958914 15.2223497,20.3030246 C14.6291642,19.6101578 14.3330617,18.1809565 14.3330617,16.0164013 C14.3330617,13.987478 14.6347202,12.6102418 15.2383641,11.8846925 C15.842008,11.1601238 16.9901407,10.7970223 18.6840693,10.7970223 C20.3479302,10.7970223 21.4839704,11.0421403 22.091863,11.5313958 C22.6987751,12.0209781 23.0027214,12.9406608 23.0027214,14.2907707 L21.5019457,14.2907707 L21.5019457,14.0234287 C21.5019457,13.2305537 21.3058513,12.7010988 20.9123552,12.4376787 C20.5198396,12.1729513 19.737423,12.0405876 18.5660859,12.0405876 C17.436909,12.0405876 16.7120134,12.2906079 16.3900918,12.7906486 C16.0688239,13.2910161 15.9080265,14.4130028 15.9080265,16.1549747 C15.9080265,17.8560935 16.0920284,18.9385345 16.4600322,19.4022977 C16.8283628,19.8676951 17.6869294,20.0994133 19.0373661,20.0994133 C20.1799427,20.0994133 20.9054919,19.9474401 21.2130333,19.6438206 C21.519921,19.340528 21.6735283,18.6244566 21.6735283,17.494953" id="Fill-24" fill="#5B5858"></path>
                            <mask id="mask-6" fill="white">
                                <use xlink:href="#path-5"></use>
                            </mask>
                            <g id="Clip-27"></g>
                            <polygon id="Fill-26" fill="#5B5858" mask="url(#mask-6)" points="26.5913794 21.1922473 28.0915015 21.1922473 28.0915015 6.56458645 26.5913794 6.56458645"></polygon>
                            <path d="M39.1715534,15.1807124 L39.1601145,14.698647 C39.1601145,13.5913674 38.9787272,12.8713741 38.613338,12.5386673 C38.2499098,12.206941 37.4638981,12.0405876 36.2562835,12.0405876 C35.0418056,12.0405876 34.253833,12.234721 33.8933461,12.6242952 C33.5325325,13.0138694 33.3524524,13.8658995 33.3524524,15.1807124 L39.1715534,15.1807124 Z M39.1715534,18.0953286 L40.7037042,18.0953286 L40.7141626,18.4708494 C40.7141626,19.5353151 40.3912605,20.2794933 39.7444758,20.7046913 C39.0983448,21.1298893 37.963612,21.3426517 36.3419114,21.3426517 C34.456137,21.3426517 33.2181278,20.9975256 32.6288641,20.3085806 C32.0396005,19.6193088 31.7444785,18.1701713 31.7444785,15.963129 C31.7444785,13.918845 32.0409078,12.5481452 32.6340933,11.8477614 C33.2272789,11.146724 34.3881576,10.7970223 36.1170565,10.7970223 C38.0031577,10.7970223 39.239206,11.1009686 39.8252013,11.7078808 C40.4102163,12.3154465 40.7037042,13.5943088 40.7037042,15.5451211 L40.7037042,16.3484545 L33.3308821,16.3484545 C33.3308821,17.9626381 33.5040988,18.9921336 33.8502054,19.4346533 C34.1966388,19.8774998 35.0058549,20.0994133 36.2775271,20.0994133 C37.4851417,20.0994133 38.2691924,19.9935223 38.6296792,19.7830476 C38.9904929,19.572573 39.1715534,19.1169804 39.1715534,18.4165966 L39.1715534,18.0953286 Z" id="Fill-28" fill="#5B5858" mask="url(#mask-6)"></path>
                            <path d="M44.3889387,10.9471326 L45.8890608,10.9471326 L45.857032,12.4907222 L45.8890608,12.522751 C46.4685197,11.3726574 47.5826626,10.7971204 49.2327969,10.7971204 C50.9688859,10.7971204 52.0219127,11.3726574 52.3938384,12.522751 L52.4366524,12.522751 C53.079842,11.3726574 54.255101,10.7971204 55.9624295,10.7971204 C58.3783123,10.7971204 59.5849464,12.0292468 59.5849464,14.4948069 L59.5849464,21.1924107 L58.0841707,21.1924107 L58.0841707,14.3549262 C58.0841707,13.4551798 57.9243538,12.8443458 57.6024322,12.522751 C57.2811642,12.2008294 56.6735984,12.0406856 55.7803885,12.0406856 C54.5949979,12.0406856 53.7903573,12.2639064 53.3697348,12.7100211 C52.9474783,13.1567895 52.7366768,14.0084928 52.7366768,15.2664383 L52.7366768,21.1924107 L51.2365547,21.1924107 L51.2365547,14.4948069 L51.215638,14.0235267 C51.215638,12.7011969 50.4616551,12.0406856 48.9543429,12.0406856 C46.9103857,12.0406856 45.8890608,13.1512335 45.8890608,15.3736366 L45.8890608,21.1924107 L44.3889387,21.1924107 L44.3889387,10.9471326 Z" id="Fill-29" fill="#5B5858" mask="url(#mask-6)"></path>
                            <path d="M70.954401,15.1807124 L70.943289,14.698647 C70.943289,13.5913674 70.7605944,12.8713741 70.3961856,12.5386673 C70.0317769,12.206941 69.2464189,12.0405876 68.0391311,12.0405876 C66.8246532,12.0405876 66.0373342,12.234721 65.6758669,12.6242952 C65.3150532,13.0138694 65.1349732,13.8658995 65.1349732,15.1807124 L70.954401,15.1807124 Z M70.954401,18.0953286 L72.4865518,18.0953286 L72.4970102,18.4708494 C72.4970102,19.5353151 72.1734544,20.2794933 71.5269966,20.7046913 C70.8802119,21.1298893 69.7467864,21.3426517 68.124759,21.3426517 C66.2389846,21.3426517 65.0009754,20.9975256 64.4117117,20.3085806 C63.8221213,19.6193088 63.5273261,18.1701713 63.5273261,15.963129 C63.5273261,13.918845 63.8237554,12.5481452 64.4172678,11.8477614 C65.0097996,11.146724 66.171332,10.7970223 67.8995773,10.7970223 C69.7860053,10.7970223 71.0217267,11.1009686 71.6073953,11.7078808 C72.1940443,12.3154465 72.4865518,13.5943088 72.4865518,15.5451211 L72.4865518,16.3484545 L65.1134028,16.3484545 C65.1134028,17.9626381 65.2862927,18.9921336 65.6327261,19.4346533 C65.9791595,19.8774998 66.7883757,20.0994133 68.0603746,20.0994133 C69.2679893,20.0994133 70.05204,19.9935223 70.4125268,19.7830476 C70.7730137,19.572573 70.954401,19.1169804 70.954401,18.4165966 L70.954401,18.0953286 Z" id="Fill-30" fill="#5B5858" mask="url(#mask-6)"></path>
                            <path d="M76.1715902,10.9471326 L77.6181131,10.9471326 L77.5752992,12.34071 L77.6181131,12.3730656 C78.0756667,11.3223265 79.21138,10.7971204 81.0268872,10.7971204 C82.4910587,10.7971204 83.4826426,11.0549845 84.0006586,11.5690786 C84.5176942,12.0834996 84.7768656,13.0695275 84.7768656,14.5265088 L84.7768656,21.1924107 L83.2770703,21.1924107 L83.2770703,14.6549506 L83.2770703,14.2692983 C83.2770703,13.3907955 83.1094096,12.7995709 82.7727809,12.4956246 C82.4371327,12.192332 81.7906749,12.0406856 80.832427,12.0406856 C78.7260464,12.0406856 77.6723659,13.0371719 77.6723659,15.0307982 L77.6723659,21.1924107 L76.1715902,21.1924107 L76.1715902,10.9471326 Z" id="Fill-31" fill="#5B5858" mask="url(#mask-6)"></path>
                            <path d="M94.2391715,10.9471326 L94.2391715,12.1906978 L90.2947329,12.1906978 L90.2947329,18.4595086 C90.2947329,19.552408 90.7797397,20.0995113 91.7513873,20.0995113 C92.7171522,20.0995113 93.1985639,19.6102558 93.1985639,18.6307643 L93.2100028,18.1281091 L93.2309195,17.5594353 L94.6244969,17.5594353 L94.6346285,18.3202816 C94.6346285,20.3354782 93.6776879,21.3424229 91.7628262,21.3424229 C89.783907,21.3424229 88.794284,20.5031389 88.794284,18.824571 L88.794284,18.4595086 L88.794284,12.1906978 L87.3797898,12.1906978 L87.3797898,10.9471326 L88.794284,10.9471326 L88.794284,8.48255297 L90.2947329,8.48255297 L90.2947329,10.9471326 L94.2391715,10.9471326 Z" id="Fill-32" fill="#5B5858" mask="url(#mask-6)"></path>
                            <path d="M105.210751,13.6265336 L103.710955,13.6265336 C103.710955,12.9127501 103.565845,12.4692499 103.276606,12.2976673 C102.987367,12.1264116 102.242535,12.0404569 101.042764,12.0404569 C99.9279677,12.0404569 99.2203938,12.1313139 98.9203694,12.3143353 C98.6209986,12.4953958 98.4700059,12.9336668 98.4700059,13.6265336 C98.4700059,14.6766191 98.9736417,15.2266638 99.9809132,15.2766679 L101.192123,15.3410522 L102.724927,15.4165486 C104.581941,15.5083861 105.511102,16.4803606 105.511102,18.330838 C105.511102,19.481912 105.203234,20.2708651 104.589458,20.6996582 C103.974049,21.1277976 102.849774,21.3425209 101.21304,21.3425209 C99.5344716,21.3425209 98.378822,21.138256 97.7470713,20.7316869 C97.1140132,20.3251179 96.7986281,19.5773446 96.7986281,18.4916354 L96.8090865,17.9344005 L98.3628077,17.9344005 L98.3735929,18.4164659 C98.3735929,19.088416 98.5448486,19.5371453 98.887687,19.7616734 C99.2308522,19.9871819 99.9067241,20.0992825 100.913669,20.0992825 C102.149063,20.0992825 102.962202,19.9812991 103.351449,19.7450053 C103.741023,19.5096921 103.935157,19.0165147 103.935157,18.2664537 C103.935157,17.1876077 103.446228,16.648675 102.468044,16.648675 C100.188773,16.648675 98.6896316,16.4551952 97.9719262,16.0695429 C97.2538939,15.6835637 96.8947144,14.8844791 96.8947144,13.6693476 C96.8947144,12.5195808 97.1783976,11.7531786 97.7470713,11.3714482 C98.3141109,10.9887373 99.4452487,10.7968916 101.138524,10.7968916 C103.852797,10.7968916 105.210751,11.6155857 105.210751,13.2513397 L105.210751,13.6265336 Z" id="Fill-33" fill="#5B5858" mask="url(#mask-6)"></path>
                        </g>
                    </g>
                </g>
            </g>
        </g>
    </g>
</svg>
